# xmcd CD database file
#
# Track frame offsets:
#	150
#	18635
#	38458
#	58731
#	81806
#	96934
#	112349
#	132479
#	150942
#
# Disc length: 2207 seconds
#
# Revision: 6
# Processed by: cddbd v1.5.2PL0 Copyright (c) Steve Scherf et al.
# Submitted via: CDex 1.70beta3
#
DISCID=70089d09
DTITLE=ディープ・パープル - 嵐の使者
DYEAR=1974
DGENRE=Hard Rock
TTITLE0=嵐の使者
TTITLE1=愛は何よりも強く
TTITLE2=聖人
TTITLE3=ホールド・オン
TTITLE4=嵐の女
TTITLE5=ユー・キャント・ドゥー・イット・ライト
TTITLE6=ハイ・ボール・シューター
TTITLE7=ジプシー
TTITLE8=幸運な兵士
EXTD=YEAR: 1974
EXTT0=
EXTT1=
EXTT2=
EXTT3=
EXTT4=
EXTT5=
EXTT6=
EXTT7=
EXTT8=
PLAYORDER=
